<?xml version="1.0" encoding="utf-8"?>
<!-- Generator: Adobe Illustrator 19.2.1, SVG Export Plug-In . SVG Version: 6.00 Build 0)  -->
<svg version="1.1" id="Capa_1" xmlns="http://www.w3.org/2000/svg" xmlns:xlink="http://www.w3.org/1999/xlink" x="0px" y="0px"
	 viewBox="0 0 400 26" style="enable-background:new 0 0 400 26;" xml:space="preserve">
<style type="text/css">
	.st0{fill:#FFFFFF;}
</style>
<g>
	<g>
		<polygon class="st0" points="215.4,25.4 215.4,0.7 219.1,0.7 219.1,10.5 236.3,10.5 236.3,0.7 239.9,0.7 239.9,25.4 236.3,25.4 
			236.3,13.3 219.1,13.3 219.1,25.4 		"/>
		<path class="st0" d="M277.6,23.2c3.3,0,6-1,8.1-2.8c2.1-1.9,3.2-4.3,3.2-7.2s-1.1-5.3-3.2-7.2c-2.1-1.9-4.9-2.8-8.1-2.8
			s-5.9,1-8.1,2.8c-2.1,1.9-3.2,4.3-3.2,7.2s1.1,5.3,3.2,7.2C271.7,22.2,274.3,23.2,277.6,23.2z M277.6,26c-4.4,0-8-1.3-10.8-3.7
			c-2.8-2.4-4.3-5.5-4.3-9.3s1.5-6.9,4.3-9.3c2.8-2.4,6.4-3.7,10.8-3.7s8,1.3,10.9,3.7c2.9,2.4,4.3,5.5,4.3,9.3s-1.5,6.8-4.3,9.3
			C285.6,24.8,282,26,277.6,26z"/>
		<polygon class="st0" points="315.1,25.4 315.1,0.7 318.5,0.7 330.2,15.8 342,0.7 345.3,0.7 345.3,25.4 341.7,25.4 341.7,6.1 
			330.2,20.8 318.6,6.1 318.6,25.4 		"/>
		<polygon class="st0" points="370,25.4 370,0.7 392.9,0.7 392.9,3.6 373.6,3.6 373.6,10.8 385.2,10.8 385.2,13.6 373.6,13.6 
			373.6,22.6 394,22.6 394,25.4 		"/>
	</g>
	<g>
		<polygon class="st0" points="6,25.4 25.6,3.6 7.6,3.6 7.6,0.7 32.2,0.7 13,22.6 32.1,22.6 32.1,25.4 		"/>
		<path class="st0" d="M59.1,15.9h12.8l-6.5-11L59.1,15.9z M49.7,25.4L64,0.7h3l14.5,24.6h-3.9l-4-6.6H57.4l-3.9,6.6L49.7,25.4
			L49.7,25.4z"/>
		<path class="st0" d="M105.4,11.7h12.8c1.8,0,3.2-0.4,4.2-1.1c1-0.7,1.5-1.6,1.5-3c0-1.3-0.5-2.3-1.5-3c-1-0.7-2.2-1.1-4-1.1h-13
			V11.7z M101.8,25.4V0.7h16.7c2.8,0,5,0.6,6.7,1.8s2.4,2.9,2.4,5c0,1.7-0.6,3.3-1.8,4.6c-1.3,1.3-2.9,2-4.9,2.4l7.3,10.9h-4
			l-7.3-10.8h-11.3v10.8H101.8z"/>
		<path class="st0" d="M153.5,15.9h12.8l-6.4-11L153.5,15.9z M144.2,25.4l14.3-24.6h3l14.4,24.6H172l-4-6.6h-16.1l-3.9,6.6H144.2z"
			/>
	</g>
</g>
</svg>
